<svg xmlns="http://www.w3.org/2000/svg" width="256" height="256" viewBox="0 0 100 100"><path fill="#000000" d="M12.69 70.60L17.59 70.60L17.59 75.23L2.78 75.23L2.78 70.60L7.41 70.60L22.31 24.77L27.69 24.77L42.87 70.60L47.22 70.60L47.22 75.23L32.41 75.23L32.41 70.60L37.04 70.60L32.50 56.71L17.04 56.71L12.69 70.60ZM24.72 32.64L24.54 32.64L18.43 52.08L31.02 52.08L24.72 32.64ZM50 75.23L50 70.60L55.56 70.60L55.56 29.86L50 29.86L50 25.23L66.67 25.23L66.67 29.86L61.11 29.86L61.11 47.45L86.11 47.45L86.11 29.86L80.56 29.86L80.56 25.23L97.22 25.23L97.22 29.86L91.67 29.86L91.67 70.60L97.22 70.60L97.22 75.23L80.56 75.23L80.56 70.60L86.11 70.60L86.11 52.08L61.11 52.08L61.11 70.60L66.67 70.60L66.67 75.23L50 75.23Z"></path></svg>