<svg xmlns="http://www.w3.org/2000/svg" width="256" height="256" viewBox="0 0 100 100"><path d="M11.86 69.29L17.69 69.29L17.69 74.23L1.54 74.23L1.54 69.29L6.47 69.29L22.99 25.77L29.00 25.77L45.15 69.29L50 69.29L50 74.23L33.85 74.23L33.85 69.29L39.41 69.29L35.10 57.63L16.08 57.63L11.86 69.29ZM33.31 52.69L25.77 32.05L25.41 32.05L17.87 52.69L33.31 52.69ZM82.31 74.23L82.31 69.29L87.69 69.29L87.69 51.35L60.77 51.35L60.77 69.29L66.15 69.29L66.15 74.23L50 74.23L50 69.29L55.38 69.29L55.38 30.71L50 30.71L50 25.77L66.15 25.77L66.15 30.71L60.77 30.71L60.77 46.41L87.69 46.41L87.69 30.71L82.31 30.71L82.31 25.77L98.46 25.77L98.46 30.71L93.08 30.71L93.08 69.29L98.46 69.29L98.46 74.23L82.31 74.23Z" fill="#000000"></path></svg>