<svg xmlns="http://www.w3.org/2000/svg" width="256" height="256" viewBox="0 0 100 100"><path d="M9.13 70.67L15.38 70.67L15.38 75.96L-1.92 75.96L-1.92 70.67L3.37 70.67L21.06 24.04L27.50 24.04L44.81 70.67L50.00 70.67L50.00 75.96L32.69 75.96L32.69 70.67L38.65 70.67L34.04 58.17L13.65 58.17L9.13 70.67ZM32.12 52.88L24.04 30.77L23.65 30.77L15.58 52.88L32.12 52.88ZM84.62 75.96L84.62 70.67L90.38 70.67L90.38 51.44L61.54 51.44L61.54 70.67L67.31 70.67L67.31 75.96L50.00 75.96L50.00 70.67L55.77 70.67L55.77 29.33L50.00 29.33L50.00 24.04L67.31 24.04L67.31 29.33L61.54 29.33L61.54 46.15L90.38 46.15L90.38 29.33L84.62 29.33L84.62 24.04L101.92 24.04L101.92 29.33L96.15 29.33L96.15 70.67L101.92 70.67L101.92 75.96L84.62 75.96Z" fill="#000000"></path></svg>